<svg xmlns="http://www.w3.org/2000/svg" width="512" height="512"><g fill="none" fill-rule="evenodd"><rect width="512" height="512" fill="#2B7FC2"/><path fill="#FFF" d="M154.984476,51 C187.345338,56.7384366 217.920947,63.3694992 246.711304,70.893188 L250.493274,71.8892256 C278.423561,79.3012045 310.662383,89.0826601 347.209739,101.233593 L347.209739,244.412753 C363.552756,250.461789 379.895774,257.105909 396.238791,264.345112 L399.284389,265.700704 C414.418789,272.469868 428.149348,279.107105 440.476067,285.612415 L440.476067,141.95176 L486,169.636852 L486,456.813354 L440.476067,441.249847 L440.476067,333.09432 C424.441368,324.790844 408.491723,317.082452 392.627133,309.969144 C376.762543,302.855836 361.623411,296.662891 347.209739,291.390309 L347.209739,456.340279 L300.828757,440.517454 L300.828757,126.846621 C279.92771,120.545494 257.538953,114.541909 233.662486,108.835866 L230.235579,108.02134 C207.282976,102.595321 182.199275,97.252368 154.984476,91.9924822 L154.984476,51 Z M154.984476,111.584479 C226.220635,111.584479 283.968952,177.125821 283.968952,257.975165 C283.968952,338.824508 226.220635,404.36585 154.984476,404.36585 C83.748317,404.36585 26,338.824508 26,257.975165 C26,177.125821 83.748317,111.584479 154.984476,111.584479 Z M155.282018,164.249421 C112.145935,164.249421 77.1772313,206.211866 77.1772313,257.975165 C77.1772313,309.738464 112.145935,351.700909 155.282018,351.700909 C198.4181,351.700909 233.386804,309.738464 233.386804,257.975165 C233.386804,206.211866 198.4181,164.249421 155.282018,164.249421 Z"/></g></svg>